<svg width="614" height="310" viewBox="0 0 614 310" fill="none" xmlns="http://www.w3.org/2000/svg">
<path d="M442.958 301.283C393.943 296.213 352.319 269.021 326.65 228.588L249.189 106.579C226.994 71.6109 188.9 50.0476 147.144 55.1728C109.802 59.7615 79.2202 83.5917 64.2613 117.607C51.4046 146.847 53.2854 179.734 70.944 208.897C85.0509 232.191 112.17 250.918 142.121 254.762C173.654 258.814 202.354 247.698 223.277 224.087C228.67 218 242.091 200.485 247.501 191L276.091 233.985C239.933 295.126 172.658 317.042 105.553 293.606C63.1105 278.789 29.9952 245.804 15.9546 207.211C-1.30563 159.726 7.12535 111.211 34.9077 72.3336C61.5173 35.088 101.371 10.7869 147.365 7.41382C202.41 3.37276 252.818 29.218 284.827 73.5602L346.378 169.779L376.384 214.351C402.972 247.83 445.868 263.556 487.27 251.323C521.99 241.062 547.471 211.734 555.072 179.362C564.045 141.097 550.99 103.928 522.565 78.9702C491.431 51.6246 447.328 48.9196 411.414 69.3768C390.325 81.3904 373.501 106.579 367.617 115.416L340.001 73.5602C358.501 46.5004 391.321 19.4384 432.082 11.0497C482.933 0.580157 533.851 19.8217 568.582 57.5602C610.272 102.866 619.19 169.494 589.637 224.164C560.084 278.833 504.719 307.657 442.969 301.261L442.958 301.283Z" fill="#3EB89F" stroke="#3EB89F" stroke-width="14"/>
</svg>
